# xmcd
#
# Track frame offsets:
#	150
#	28457
#	49900
#	75835
#	104185
#	128122
#	155195
#	185275
#	217967
#	255837
#	292632
#
# Disc length: 4384 seconds
#
# Revision: 1
# Processed by: cddbd v1.5PL3 Copyright (c) Steve Scherf et al.
# Submitted via: CDex 1.50Beta5
#
DISCID=93111e0b
DTITLE=Femi Kuti - Shoki Shoki
DYEAR=1900
DGENRE=
TTITLE0=Truth Don Die
TTITLE1=Beng Beng Beng
TTITLE2=What Will Tomorrow Bring
TTITLE3=Victim Of Life
TTITLE4=Blackman Know Yourself
TTITLE5=Look Around
TTITLE6=Sorry Sorry
TTITLE7=Eregele
TTITLE8=Scatta Head
TTITLE9=Truth Don Die(Kerri's Deep Dub)
TTITLE10=Truth Don Die(Nyorican Soul Version)
EXTD=
EXTT0=
EXTT1=
EXTT2=
EXTT3=
EXTT4=
EXTT5=
EXTT6=
EXTT7=
EXTT8=
EXTT9=
EXTT10=
PLAYORDER=
